<?xml version="1.0" encoding="utf-8"?>
<!-- Generator: Circuit Diagram, cdlibrary.dll 1.0.0.0 -->
<!DOCTYPE svg PUBLIC "-//W3C//DTD SVG 1.1//EN" "http://www.w3.org/Graphics/SVG/1.1/DTD/svg11.dtd">
<svg version="1.1" width="280" height="240" xmlns="http://www.w3.org/2000/svg">
	<line x1="60" y1="20" x2="60" y2="111" style="stroke:rgb(0, 0, 0);stroke-linecap:square;stroke-width:2" />
	<line x1="50" y1="111" x2="70" y2="111" style="stroke:rgb(0, 0, 0);stroke-linecap:square;stroke-width:2" />
	<line x1="55" y1="117" x2="65" y2="117" style="stroke:rgb(0, 0, 0);stroke-linecap:square;stroke-width:2" />
	<line x1="50" y1="123" x2="70" y2="123" style="stroke:rgb(0, 0, 0);stroke-linecap:square;stroke-width:2" />
	<line x1="55" y1="129" x2="65" y2="129" style="stroke:rgb(0, 0, 0);stroke-linecap:square;stroke-width:2" />
	<line x1="60" y1="129" x2="60" y2="220" style="stroke:rgb(0, 0, 0);stroke-linecap:square;stroke-width:2" />
	<text x="46" y="120" style="font-family:Arial;font-size:12px;text-anchor:end" dy=".3em">+5V</text>
	<line x1="260" y1="160" x2="260" y2="220" style="stroke:rgb(0, 0, 0);stroke-linecap:square;stroke-width:2" />
	<line x1="260" y1="20" x2="260" y2="90" style="stroke:rgb(0, 0, 0);stroke-linecap:square;stroke-width:2" />
	<line x1="260" y1="100" x2="260" y2="91" style="stroke:rgb(0, 0, 0);stroke-linecap:square;stroke-width:2" />
	<path d="M 260,91 L 260,101 L 265,105 L 255,113 L 265,121 L 255,129 L 265,137 L 255,145 L 260,149 L 260,159" style="fill-opacity:0;fill:rgb(0, 0, 0);stroke:rgb(0, 0, 0);stroke-width:2" />
	<line x1="260" y1="159" x2="260" y2="150" style="stroke:rgb(0, 0, 0);stroke-linecap:square;stroke-width:2" />
	<text x="246" y="125" style="font-family:Arial;font-size:11px;text-anchor:end" dy=".3em">4.7 kΩ</text>
	<line x1="60" y1="20" x2="260" y2="20" style="stroke:rgb(0, 0, 0);stroke-linecap:square;stroke-width:2" />
	<line x1="60" y1="220" x2="260" y2="220" style="stroke:rgb(0, 0, 0);stroke-linecap:square;stroke-width:2" />
</svg>